<svg width="176" height="42" viewBox="0 0 176 42" fill="none" xmlns="http://www.w3.org/2000/svg">
<path fill-rule="evenodd" clip-rule="evenodd" d="M163.024 1.73426H162.831V1.21603C162.872 1.20343 162.949 1.1924 163.054 1.1924C163.313 1.1924 163.433 1.30424 163.433 1.46963C163.433 1.65708 163.249 1.73426 163.024 1.73426ZM162.413 2.76127H162.819V2.03197H163.013C163.238 2.03197 163.345 2.12018 163.377 2.32022C163.39 2.36655 163.401 2.41071 163.411 2.45213C163.447 2.59801 163.475 2.70974 163.517 2.76127H163.956C163.915 2.69511 163.883 2.58485 163.828 2.3092C163.774 2.06505 163.679 1.93273 163.506 1.86658V1.84452C163.72 1.77837 163.872 1.624 163.872 1.42553C163.872 1.24911 163.797 1.10419 163.699 1.02701C163.57 0.949827 163.42 0.894696 163.088 0.894696C162.799 0.894696 162.572 0.916749 162.413 0.949827V2.76127ZM163.11 3.25745C162.315 3.25745 161.735 2.61793 161.735 1.81144C161.735 1.01598 162.315 0.365439 163.099 0.365439C163.883 0.365439 164.452 1.01598 164.452 1.82247C164.452 2.61793 163.883 3.25745 163.11 3.25745ZM163.099 3.64494C164.118 3.64494 164.902 2.83846 164.902 1.81144C164.902 0.806487 164.118 0 163.099 0C162.09 0 161.285 0.806487 161.285 1.81144C161.285 2.83846 162.09 3.64494 163.099 3.64494ZM37.97 3.81884C38.2991 3.81884 38.4767 4.03149 38.5073 4.27406L42.0175 24.6599C42.1078 25.0852 41.869 25.3593 41.4817 25.3593H38.7752C38.5073 25.3593 38.27 25.1151 38.2103 24.9025L36.4544 13.4053H36.3672L31.1593 25.3278C31.0996 25.5089 30.9205 25.6633 30.6526 25.6633H30.1183C29.8519 25.6633 29.7019 25.5089 29.6116 25.3278L24.347 13.4053H24.2567L22.5299 24.9025C22.5024 25.1151 22.2651 25.3593 21.9972 25.3593H19.3198C18.9325 25.3593 18.6952 25.0852 18.7549 24.6599L22.2942 4.27406C22.3233 4.03149 22.5024 3.81884 22.83 3.81884H23.3045C23.5449 3.81884 23.7209 3.94013 23.8112 4.12285L30.3556 18.4411H30.4444L36.9902 4.12285C37.079 3.94013 37.229 3.81884 37.4969 3.81884H37.97ZM49.3332 4.12285H52.0994C52.3964 4.12285 52.6658 4.39535 52.6658 4.69936V24.7812C52.6658 25.0852 52.3964 25.3593 52.0994 25.3593H49.3332C49.0362 25.3593 48.7683 25.0852 48.7683 24.7812V4.69936C48.7683 4.39535 49.0362 4.12285 49.3332 4.12285ZM69.2944 13.7999H64.4447V7.76385H69.2944C70.8696 7.76385 72.2397 9.09802 72.2397 10.7063C72.2397 12.4043 70.8696 13.7999 69.2944 13.7999ZM76.1051 10.6448C76.1051 7.03455 73.1919 4.12364 69.622 4.12364H61.1121C60.786 4.12364 60.5472 4.39614 60.5472 4.70015V24.7804C60.5472 25.086 60.786 25.3601 61.1121 25.3601H63.8492C64.1477 25.3601 64.4141 25.086 64.4141 24.7804V17.0463H67.7176L71.6733 25.086C71.733 25.2057 71.8815 25.3601 72.1494 25.3601H75.2723C75.7775 25.3601 75.9872 24.8733 75.7775 24.478L71.7024 16.7722C74.2911 15.7106 76.1051 13.436 76.1051 10.6448ZM90.3235 11.4334L87.4088 18.1089H93.3867L90.4138 11.4334H90.3235ZM90.5914 3.819C90.8884 3.819 91.0093 3.97021 91.0966 4.15293L100.262 24.5687C100.438 24.9641 100.2 25.3594 99.7535 25.3594H97.1664C96.7193 25.3594 96.5127 25.1767 96.3045 24.753L94.8456 21.4766H85.9514L84.4925 24.753C84.3747 25.0554 84.1068 25.3594 83.6307 25.3594H81.042C80.5966 25.3594 80.3578 24.9641 80.5369 24.5687L89.7892 4.15293C89.8765 3.97021 90.0265 3.819 90.2944 3.819H90.5914ZM120.165 19.9585C119.989 19.7774 119.661 19.7458 119.422 19.9585C118.173 20.9902 116.655 21.6896 114.87 21.6896C111.063 21.6896 108.206 18.4715 108.206 14.6801C108.206 10.8572 111.032 7.61075 114.839 7.61075C116.506 7.61075 118.173 8.27862 119.422 9.40171C119.661 9.64271 119.957 9.64271 120.165 9.40171L121.982 7.48946C122.218 7.24688 122.218 6.88302 121.951 6.64044C119.929 4.78962 117.757 3.81931 114.752 3.81931C108.801 3.81931 104.011 8.70234 104.011 14.7715C104.011 20.839 108.801 25.6622 114.752 25.6622C117.399 25.6622 119.957 24.7218 121.982 22.7198C122.189 22.5087 122.248 22.1133 122.01 21.9007L120.165 19.9585ZM132.391 21.7181H139.976C140.304 21.7181 140.541 21.9922 140.541 22.2962V24.7818C140.541 25.0858 140.304 25.3599 139.976 25.3599H129.089C128.761 25.3599 128.524 25.0858 128.524 24.7818V4.69842C128.524 4.39598 128.761 4.12348 129.089 4.12348H131.824C132.121 4.12348 132.391 4.39598 132.391 4.69842V21.7181ZM159.043 4.12285H146.935C146.608 4.12285 146.37 4.39535 146.37 4.69936V24.7812C146.37 25.0852 146.608 25.3593 146.935 25.3593H159.043C159.37 25.3593 159.608 25.0852 159.608 24.7812V22.2956C159.608 21.9931 159.37 21.7175 159.043 21.7175H150.237V16.4076H157.585C157.882 16.4076 158.15 16.1666 158.15 15.8327V13.314C158.15 13.0115 157.882 12.7374 157.585 12.7374H150.237V7.76306H159.043C159.37 7.76306 159.608 7.49056 159.608 7.18655V4.69936C159.608 4.39535 159.37 4.12285 159.043 4.12285ZM5.5799 7.66304L6.70507 12.5098L11.1552 11.1394L7.83482 14.6143L11.1552 18.0938L6.70507 16.7234L5.5799 21.5671L4.45014 16.7234L0 18.0938L3.32498 14.6143L0 11.1394L4.45014 12.5098L5.5799 7.66304ZM176 11.1396L171.551 12.51L170.423 7.6632L169.296 12.51L164.845 11.1396L168.168 14.6144L164.845 18.094L169.296 16.7236L170.423 21.5672L171.551 16.7236L176 18.094L172.678 14.6144L176 11.1396ZM66.8028 33.5352L69.5905 38.9049L72.3781 33.5352H74.3728V41.9986H72.3888V37.4889L70.0604 41.9986H69.119L66.7783 37.4637V41.9986H64.7943V33.5352H66.8028ZM81.6637 38.6638L82.7154 35.8852L83.7809 38.6638H81.6637ZM81.6637 33.5366L78.1948 42H80.387L80.9702 40.4579H84.4621L85.0453 42H87.2252L83.7564 33.5366H81.6637ZM93.0908 40.192H94.2558C95.8034 40.192 96.8199 39.2327 96.8199 37.7663C96.8199 36.3014 95.8034 35.3405 94.2558 35.3405H93.0908V40.192ZM91.0456 33.5354H94.3292C97.0679 33.5354 98.8758 35.2539 98.8758 37.7663C98.8758 40.2802 97.0679 41.9987 94.3292 41.9987H91.0456V33.5354ZM105.176 38.6131H109.201V36.9213H105.176V35.3288H109.561V33.5363H103.131V41.9997H109.599V40.2056H105.176V38.6131Z" fill="black"/>
</svg>
