<svg width="213" height="48" viewBox="0 0 213 48" fill="none" xmlns="http://www.w3.org/2000/svg">
<rect x="33.1504" y="13.6" width="144.5" height="2.55" fill="#FCF8CD"/>
<rect x="32.2998" y="13.6" width="39.1" height="2.55" fill="#142541"/>
<rect x="71.4004" y="13.6" width="68.85" height="2.55" fill="black"/>
<circle cx="36.9746" cy="14.875" r="14.875" fill="black"/>
<circle cx="106.675" cy="14.875" r="14.875" fill="black"/>
<circle cx="174.675" cy="14.875" r="14.875" fill="#FCF8CD"/>
<path d="M36.6952 19.9709C36.6952 20.1178 36.8127 20.25 36.9743 20.25H38.6046C38.7515 20.25 38.869 20.1178 38.869 19.9709V10.5412C38.869 10.3944 38.7515 10.2622 38.6046 10.2622H37.2533L35.1089 11.9366C35.0648 11.9807 35.0208 12.0982 35.0208 12.1569V13.0823C35.0208 13.2291 35.1383 13.3613 35.2851 13.3613H36.6952V19.9709Z" fill="white"/>
<path d="M103.24 19.9709C103.24 20.1178 103.358 20.25 103.519 20.25H109.394C109.541 20.25 109.674 20.1178 109.674 19.9709V18.649C109.674 18.5021 109.541 18.3699 109.394 18.3699H106.809C107.5 17.4005 108.704 15.8289 109.174 14.9917C109.527 14.3014 109.747 13.8607 109.747 13.0823C109.747 11.4519 108.513 10.1153 106.413 10.1153C104.665 10.1153 103.475 11.5547 103.475 11.5547C103.372 11.6722 103.387 11.8485 103.49 11.9366L104.386 12.8472C104.503 12.9648 104.68 12.9648 104.797 12.8472C105.076 12.5388 105.62 12.1128 106.222 12.1128C107.044 12.1128 107.514 12.6122 107.514 13.1704C107.514 13.5816 107.323 13.9929 107.133 14.2867C106.266 15.6086 104.092 18.5609 103.24 19.6772V19.9709Z" fill="white"/>
<path d="M17.2232 39.41C17.2232 41.41 18.8332 43 20.8332 43C21.7232 43 22.5832 42.69 23.2632 42.03C23.3332 41.96 23.3532 41.83 23.2732 41.76L22.6532 41.12C22.5932 41.06 22.4832 41.05 22.4032 41.12C21.9832 41.46 21.4732 41.69 20.8732 41.69C19.5932 41.69 18.6332 40.63 18.6332 39.38C18.6332 38.12 19.5832 37.05 20.8632 37.05C21.4232 37.05 21.9832 37.27 22.4032 37.64C22.4832 37.72 22.5832 37.72 22.6532 37.64L23.2632 37.01C23.3432 36.93 23.3432 36.81 23.2532 36.73C22.5732 36.12 21.8432 35.8 20.8332 35.8C18.8332 35.8 17.2232 37.41 17.2232 39.41ZM24.1518 42.71C24.1518 42.81 24.2418 42.9 24.3418 42.9H25.1718C25.3218 42.9 25.3818 42.82 25.3818 42.71V40.59C25.4818 40.18 25.7918 39.88 26.2518 39.88C26.7318 39.88 27.0418 40.23 27.0418 40.78V42.71C27.0418 42.81 27.1218 42.9 27.2318 42.9H28.0418C28.1418 42.9 28.2318 42.81 28.2318 42.71V40.79C28.2318 39.78 27.7118 38.8 26.4418 38.8C25.9718 38.8 25.5818 38.98 25.3818 39.13V36.09C25.3818 35.99 25.2918 35.9 25.1918 35.9H24.3418C24.2418 35.9 24.1518 35.99 24.1518 36.09V42.71ZM29.0471 40.9C29.0471 42.05 29.8971 43 31.0971 43C31.7471 43 32.2571 42.76 32.5871 42.45C32.6871 42.37 32.6671 42.26 32.5971 42.19L32.1871 41.72C32.1171 41.64 32.0271 41.66 31.9271 41.72C31.7471 41.85 31.4571 41.97 31.1471 41.97C30.5671 41.97 30.2171 41.51 30.1871 41.1H32.7471C32.8371 41.1 32.9271 41.03 32.9371 40.93C32.9471 40.86 32.9571 40.73 32.9571 40.66C32.9571 39.58 32.1171 38.8 31.0871 38.8C29.8971 38.8 29.0471 39.77 29.0471 40.9ZM30.2771 40.4C30.3271 40.02 30.6571 39.72 31.0571 39.72C31.4371 39.72 31.7571 40.03 31.7871 40.4H30.2771ZM33.4902 40.9C33.4902 42.1 34.4802 43 35.6102 43C36.3202 43 36.8502 42.69 37.1902 42.16C37.2602 42.06 37.2202 41.96 37.1202 41.88L36.6902 41.51C36.6102 41.45 36.5102 41.47 36.4402 41.54C36.2602 41.71 36.0702 41.92 35.6402 41.92C35.1002 41.92 34.6702 41.47 34.6702 40.9C34.6702 40.34 35.1102 39.88 35.6502 39.88C35.9302 39.88 36.1802 40.02 36.3402 40.2C36.4102 40.26 36.5002 40.31 36.5902 40.23L37.0502 39.79C37.1502 39.72 37.1702 39.6 37.1002 39.51C36.7202 39.05 36.2402 38.8 35.6202 38.8C34.5002 38.8 33.4902 39.72 33.4902 40.9ZM38.058 42.71C38.058 42.81 38.148 42.9 38.248 42.9H39.098C39.198 42.9 39.288 42.81 39.288 42.71V41.02L40.868 42.82C40.898 42.86 40.978 42.9 41.038 42.9H42.118C42.288 42.9 42.348 42.73 42.248 42.62L40.468 40.71L41.958 39.19C42.058 39.08 41.998 38.9 41.828 38.9H40.918C40.808 38.9 40.738 38.96 40.668 39.02L39.288 40.42V36.09C39.288 35.99 39.198 35.9 39.098 35.9H38.248C38.148 35.9 38.058 35.99 38.058 36.09V42.71ZM42.5625 40.89C42.5625 42.04 43.4825 43 44.6125 43C45.7425 43 46.6625 42.04 46.6625 40.89C46.6625 39.76 45.7425 38.8 44.6125 38.8C43.4825 38.8 42.5625 39.76 42.5625 40.89ZM43.6525 40.89C43.6525 40.33 44.0725 39.88 44.6125 39.88C45.1425 39.88 45.5725 40.33 45.5725 40.89C45.5725 41.46 45.1425 41.92 44.6125 41.92C44.0725 41.92 43.6525 41.46 43.6525 40.89ZM47.4802 41.03C47.4802 42.05 47.9302 43 49.1702 43C49.9602 43 50.3302 42.58 50.5102 42.42L50.6302 42.75C50.6602 42.83 50.7202 42.9 50.8202 42.9H51.1902C51.2902 42.9 51.3802 42.81 51.3802 42.71V39.09C51.3802 38.98 51.2902 38.9 51.1902 38.9H50.4302C50.2702 38.9 50.2102 38.94 50.2102 39.09V41.17C50.1502 41.53 49.8302 41.92 49.4102 41.92C48.9502 41.92 48.6802 41.59 48.6802 41.06V39.09C48.6802 38.98 48.5902 38.9 48.4902 38.9H47.6702C47.5702 38.9 47.4802 38.98 47.4802 39.09V41.03ZM52.7895 41.71C52.7895 42.52 53.1295 43 53.8995 43C54.3895 43 55.0395 42.77 55.0895 42.74C55.1895 42.7 55.2395 42.6 55.1995 42.5L54.9995 41.87C54.9695 41.77 54.8895 41.72 54.7795 41.76C54.6695 41.8 54.4595 41.87 54.2895 41.87C54.1295 41.87 53.9795 41.83 53.9795 41.55V39.95H54.8595C54.9695 39.95 55.0495 39.86 55.0495 39.76V39.09C55.0495 38.98 54.9695 38.9 54.8595 38.9H53.9795V37.78C53.9795 37.68 53.8995 37.59 53.7995 37.59L52.9795 37.6C52.8795 37.6 52.7895 37.69 52.7895 37.79V38.9H52.4495C52.3495 38.9 52.2695 38.98 52.2695 39.09V39.76C52.2695 39.86 52.3495 39.95 52.4495 39.95H52.7895V41.71Z" fill="black"/>
<path d="M82.8693 42.22C83.0693 42.41 83.8093 43 85.0693 43C86.4793 43 87.3693 42.05 87.3693 41.02C87.3693 39.73 86.2493 39.15 85.2793 38.76C84.4693 38.43 84.0993 38.11 84.0993 37.64C84.0993 37.32 84.4093 36.94 84.9793 36.94C85.5293 36.94 86.2893 37.44 86.3693 37.49C86.4893 37.57 86.6393 37.49 86.7193 37.37L87.0993 36.8C87.1693 36.7 87.1393 36.53 87.0393 36.47C86.8393 36.32 86.0593 35.8 85.0393 35.8C83.4493 35.8 82.7893 36.83 82.7893 37.72C82.7893 38.9 83.7293 39.5 84.6693 39.88C85.5093 40.22 85.9393 40.57 85.9393 41.08C85.9393 41.51 85.5493 41.85 85.0293 41.85C84.3793 41.85 83.5693 41.26 83.5193 41.23C83.4293 41.16 83.2593 41.16 83.1793 41.3L82.8193 41.92C82.7293 42.08 82.7793 42.13 82.8693 42.22ZM89.4521 42.78C89.5921 42.86 89.9521 43 90.3421 43C91.4221 43 92.3221 42.08 92.3221 40.9C92.3221 39.75 91.4921 38.8 90.3921 38.8C89.7421 38.8 89.2521 39.15 89.1021 39.35L88.9721 39.02C88.9421 38.94 88.8721 38.9 88.8021 38.9H88.4121C88.3121 38.9 88.2221 38.98 88.2221 39.09V45.71C88.2221 45.81 88.3121 45.9 88.4121 45.9H89.2121C89.3921 45.9 89.4521 45.83 89.4521 45.71V42.78ZM89.4021 41.69V40.49C89.4621 40.28 89.7121 39.88 90.2221 39.88C90.7721 39.88 91.1521 40.34 91.1521 40.9C91.1521 41.46 90.7421 41.92 90.1821 41.92C89.6821 41.92 89.4021 41.69 89.4021 41.69ZM92.9221 40.9C92.9221 42.05 93.7721 43 94.9721 43C95.6221 43 96.1321 42.76 96.4621 42.45C96.5621 42.37 96.5421 42.26 96.4721 42.19L96.0621 41.72C95.9921 41.64 95.9021 41.66 95.8021 41.72C95.6221 41.85 95.3321 41.97 95.0221 41.97C94.4421 41.97 94.0921 41.51 94.0621 41.1H96.6221C96.7121 41.1 96.8021 41.03 96.8121 40.93C96.8221 40.86 96.8321 40.73 96.8321 40.66C96.8321 39.58 95.9921 38.8 94.9621 38.8C93.7721 38.8 92.9221 39.77 92.9221 40.9ZM94.1521 40.4C94.2021 40.02 94.5321 39.72 94.9321 39.72C95.3121 39.72 95.6321 40.03 95.6621 40.4H94.1521ZM97.3652 40.9C97.3652 42.1 98.3552 43 99.4852 43C100.195 43 100.725 42.69 101.065 42.16C101.135 42.06 101.095 41.96 100.995 41.88L100.565 41.51C100.485 41.45 100.385 41.47 100.315 41.54C100.135 41.71 99.9452 41.92 99.5152 41.92C98.9752 41.92 98.5452 41.47 98.5452 40.9C98.5452 40.34 98.9852 39.88 99.5252 39.88C99.8052 39.88 100.055 40.02 100.215 40.2C100.285 40.26 100.375 40.31 100.465 40.23L100.925 39.79C101.025 39.72 101.045 39.6 100.975 39.51C100.595 39.05 100.115 38.8 99.4952 38.8C98.3752 38.8 97.3652 39.72 97.3652 40.9ZM102.523 37.48C102.913 37.48 103.223 37.17 103.223 36.79C103.223 36.41 102.913 36.1 102.523 36.1C102.143 36.1 101.843 36.41 101.843 36.79C101.843 37.17 102.143 37.48 102.523 37.48ZM101.933 42.71C101.933 42.81 102.023 42.9 102.123 42.9H102.953C103.053 42.9 103.143 42.81 103.143 42.71V39.09C103.143 38.98 103.053 38.9 102.953 38.9H102.123C102.023 38.9 101.933 38.98 101.933 39.09V42.71ZM104.055 41.63C104.055 42.48 104.605 43 105.405 43C106.025 43 106.395 42.7 106.625 42.49L106.745 42.76C106.795 42.87 106.845 42.9 106.915 42.9H107.275C107.375 42.9 107.465 42.81 107.465 42.71V40.54C107.465 39.45 107.175 38.8 105.925 38.8C105.285 38.8 104.645 38.96 104.565 38.99C104.475 39.02 104.395 39.09 104.425 39.24L104.515 39.76C104.535 39.89 104.605 39.98 104.745 39.94C104.975 39.87 105.495 39.79 105.865 39.79C106.235 39.79 106.395 39.97 106.385 40.48C106.385 40.48 106.055 40.37 105.655 40.37C104.635 40.37 104.055 40.92 104.055 41.63ZM105.155 41.63C105.155 41.31 105.415 41.09 105.805 41.09C106.095 41.09 106.365 41.21 106.365 41.21V41.76C106.305 41.88 105.995 42.15 105.675 42.15C105.365 42.15 105.155 41.93 105.155 41.63ZM108.613 42.71C108.613 42.81 108.703 42.9 108.803 42.9H109.643C109.743 42.9 109.833 42.81 109.833 42.71V36.09C109.833 35.99 109.743 35.9 109.643 35.9H108.803C108.703 35.9 108.613 35.99 108.613 36.09V42.71ZM113.552 42.71C113.552 42.81 113.632 42.9 113.732 42.9H116.102C118.032 42.9 119.612 41.33 119.612 39.39C119.612 37.47 118.032 35.9 116.102 35.9H113.732C113.632 35.9 113.552 35.99 113.552 36.09V42.71ZM114.842 41.68V37.11H115.982C117.282 37.11 118.232 38.09 118.232 39.39C118.232 40.7 117.282 41.68 115.982 41.68H114.842ZM120.188 40.9C120.188 42.05 121.038 43 122.238 43C122.888 43 123.398 42.76 123.728 42.45C123.828 42.37 123.808 42.26 123.738 42.19L123.328 41.72C123.258 41.64 123.168 41.66 123.068 41.72C122.888 41.85 122.598 41.97 122.288 41.97C121.708 41.97 121.358 41.51 121.328 41.1H123.888C123.978 41.1 124.068 41.03 124.078 40.93C124.088 40.86 124.098 40.73 124.098 40.66C124.098 39.58 123.258 38.8 122.228 38.8C121.038 38.8 120.188 39.77 120.188 40.9ZM121.418 40.4C121.468 40.02 121.798 39.72 122.198 39.72C122.578 39.72 122.898 40.03 122.928 40.4H121.418ZM124.651 41.63C124.651 42.48 125.201 43 126.001 43C126.621 43 126.991 42.7 127.221 42.49L127.341 42.76C127.391 42.87 127.441 42.9 127.511 42.9H127.871C127.971 42.9 128.061 42.81 128.061 42.71V40.54C128.061 39.45 127.771 38.8 126.521 38.8C125.881 38.8 125.241 38.96 125.161 38.99C125.071 39.02 124.991 39.09 125.021 39.24L125.111 39.76C125.131 39.89 125.201 39.98 125.341 39.94C125.571 39.87 126.091 39.79 126.461 39.79C126.831 39.79 126.991 39.97 126.981 40.48C126.981 40.48 126.651 40.37 126.251 40.37C125.231 40.37 124.651 40.92 124.651 41.63ZM125.751 41.63C125.751 41.31 126.011 41.09 126.401 41.09C126.691 41.09 126.961 41.21 126.961 41.21V41.76C126.901 41.88 126.591 42.15 126.271 42.15C125.961 42.15 125.751 41.93 125.751 41.63ZM129.208 42.71C129.208 42.81 129.298 42.9 129.398 42.9H130.238C130.338 42.9 130.428 42.81 130.428 42.71V36.09C130.428 35.99 130.338 35.9 130.238 35.9H129.398C129.298 35.9 129.208 35.99 129.208 36.09V42.71Z" fill="black"/>
<path d="M157.726 42.22C157.926 42.41 158.666 43 159.926 43C161.336 43 162.226 42.05 162.226 41.02C162.226 39.73 161.106 39.15 160.136 38.76C159.326 38.43 158.956 38.11 158.956 37.64C158.956 37.32 159.266 36.94 159.836 36.94C160.386 36.94 161.146 37.44 161.226 37.49C161.346 37.57 161.496 37.49 161.576 37.37L161.956 36.8C162.026 36.7 161.996 36.53 161.896 36.47C161.696 36.32 160.916 35.8 159.896 35.8C158.306 35.8 157.646 36.83 157.646 37.72C157.646 38.9 158.586 39.5 159.526 39.88C160.366 40.22 160.796 40.57 160.796 41.08C160.796 41.51 160.406 41.85 159.886 41.85C159.236 41.85 158.426 41.26 158.376 41.23C158.286 41.16 158.116 41.16 158.036 41.3L157.676 41.92C157.586 42.08 157.636 42.13 157.726 42.22ZM163.018 41.03C163.018 42.05 163.468 43 164.708 43C165.498 43 165.868 42.58 166.048 42.42L166.168 42.75C166.198 42.83 166.258 42.9 166.358 42.9H166.728C166.828 42.9 166.918 42.81 166.918 42.71V39.09C166.918 38.98 166.828 38.9 166.728 38.9H165.968C165.808 38.9 165.748 38.94 165.748 39.09V41.17C165.688 41.53 165.368 41.92 164.948 41.92C164.488 41.92 164.218 41.59 164.218 41.06V39.09C164.218 38.98 164.128 38.9 164.028 38.9H163.208C163.108 38.9 163.018 38.98 163.018 39.09V41.03ZM168.118 42.71C168.118 42.81 168.208 42.9 168.308 42.9H169.118C169.218 42.9 169.308 42.81 169.308 42.71V40.51C169.408 40.24 169.648 39.88 170.148 39.88C170.658 39.88 170.888 40.21 170.888 40.73V42.71C170.888 42.81 170.968 42.9 171.078 42.9H171.828C171.928 42.9 172.018 42.81 172.018 42.71V40.68C172.018 40.5 172.008 40.3 172.008 40.3C172.008 40.3 172.268 39.88 172.848 39.88C173.348 39.88 173.598 40.21 173.598 40.73V42.71C173.598 42.81 173.678 42.9 173.788 42.9H174.598C174.708 42.9 174.788 42.81 174.788 42.71V40.8C174.788 39.75 174.318 38.8 173.038 38.8C172.318 38.8 171.798 39.24 171.628 39.42C171.298 39.02 170.898 38.8 170.328 38.8C169.618 38.8 169.158 39.2 168.988 39.39L168.848 39.01C168.828 38.95 168.768 38.9 168.678 38.9H168.308C168.208 38.9 168.118 38.98 168.118 39.09V42.71ZM175.911 42.71C175.911 42.81 176.001 42.9 176.101 42.9H176.911C177.011 42.9 177.101 42.81 177.101 42.71V40.51C177.201 40.24 177.441 39.88 177.941 39.88C178.451 39.88 178.681 40.21 178.681 40.73V42.71C178.681 42.81 178.761 42.9 178.871 42.9H179.621C179.721 42.9 179.811 42.81 179.811 42.71V40.68C179.811 40.5 179.801 40.3 179.801 40.3C179.801 40.3 180.061 39.88 180.641 39.88C181.141 39.88 181.391 40.21 181.391 40.73V42.71C181.391 42.81 181.471 42.9 181.581 42.9H182.391C182.501 42.9 182.581 42.81 182.581 42.71V40.8C182.581 39.75 182.111 38.8 180.831 38.8C180.111 38.8 179.591 39.24 179.421 39.42C179.091 39.02 178.691 38.8 178.121 38.8C177.411 38.8 176.951 39.2 176.781 39.39L176.641 39.01C176.621 38.95 176.561 38.9 176.471 38.9H176.101C176.001 38.9 175.911 38.98 175.911 39.09V42.71ZM183.414 41.63C183.414 42.48 183.964 43 184.764 43C185.384 43 185.754 42.7 185.984 42.49L186.104 42.76C186.154 42.87 186.204 42.9 186.274 42.9H186.634C186.734 42.9 186.824 42.81 186.824 42.71V40.54C186.824 39.45 186.534 38.8 185.284 38.8C184.644 38.8 184.004 38.96 183.924 38.99C183.834 39.02 183.754 39.09 183.784 39.24L183.874 39.76C183.894 39.89 183.964 39.98 184.104 39.94C184.334 39.87 184.854 39.79 185.224 39.79C185.594 39.79 185.754 39.97 185.744 40.48C185.744 40.48 185.414 40.37 185.014 40.37C183.994 40.37 183.414 40.92 183.414 41.63ZM184.514 41.63C184.514 41.31 184.774 41.09 185.164 41.09C185.454 41.09 185.724 41.21 185.724 41.21V41.76C185.664 41.88 185.354 42.15 185.034 42.15C184.724 42.15 184.514 41.93 184.514 41.63ZM187.971 42.71C187.971 42.81 188.061 42.9 188.161 42.9H188.931C189.071 42.9 189.161 42.85 189.161 42.71V40.29C189.231 40.15 189.471 39.88 189.871 39.88C189.981 39.88 190.131 39.93 190.161 39.94C190.241 39.98 190.341 39.94 190.391 39.85L190.761 39.2C190.881 38.95 190.461 38.8 189.991 38.8C189.371 38.8 189.001 39.22 188.861 39.42L188.721 39.03C188.691 38.95 188.631 38.9 188.541 38.9H188.161C188.061 38.9 187.971 38.98 187.971 39.09V42.71ZM192.655 42.62L191.235 45.63C191.165 45.77 191.255 45.9 191.405 45.9H192.265C192.345 45.9 192.405 45.84 192.435 45.78L195.495 39.16C195.565 39.03 195.485 38.9 195.325 38.9H194.525C194.405 38.9 194.335 38.91 194.285 39.01L193.285 41.27H193.275L192.265 39.01C192.235 38.95 192.185 38.9 192.095 38.9H191.195C191.045 38.9 190.965 39.03 191.025 39.16L192.655 42.62Z" fill="black"/>
<circle cx="47.6" cy="5.1" r="5.1" fill="#BAE474"/>
<path d="M49.8556 3.92673L49.3882 3.48992C49.3241 3.42998 49.2462 3.39999 49.1545 3.39999C49.0629 3.39999 48.9849 3.42998 48.9208 3.48992L46.6664 5.60016L45.656 4.65263C45.5918 4.59266 45.5139 4.56272 45.4223 4.56272C45.3306 4.56272 45.2528 4.59266 45.1886 4.65263L44.7212 5.08945C44.6571 5.1494 44.625 5.22222 44.625 5.30789C44.625 5.39349 44.6571 5.46638 44.7212 5.52632L45.9653 6.689L46.4327 7.12581C46.4968 7.1858 46.5747 7.21575 46.6664 7.21575C46.758 7.21575 46.8359 7.18572 46.9 7.12581L47.3674 6.689L49.8556 4.36358C49.9197 4.30362 49.9518 4.23081 49.9518 4.14514C49.9518 4.05951 49.9197 3.98669 49.8556 3.92673Z" fill="black"/>
<path d="M172.172 19.0896C172.481 19.4862 173.421 20.3969 175.271 20.3969C177.298 20.3969 178.694 19.1925 178.694 17.5915C178.694 16.3283 177.607 15.4176 176.916 15.1239V15.0798C177.577 14.7714 178.429 13.9342 178.429 12.8032C178.429 11.1581 176.96 10.1153 175.257 10.1153C173.656 10.1153 172.451 11.4078 172.451 11.4078C172.348 11.5106 172.334 11.6869 172.451 11.7897L173.347 12.671C173.465 12.7738 173.641 12.7738 173.744 12.6563C173.964 12.4066 174.375 12.0688 175.022 12.0688C175.653 12.0688 176.197 12.5388 176.197 13.1704C176.197 13.802 175.653 14.3014 174.625 14.3014H173.802C173.656 14.3014 173.523 14.4189 173.523 14.5804V15.7995C173.523 15.9464 173.656 16.0786 173.802 16.0786H174.625C175.712 16.0786 176.373 16.6221 176.373 17.2683C176.373 17.9146 175.727 18.4434 175.095 18.4434C174.39 18.4434 173.479 17.7677 173.479 17.7677C173.362 17.6796 173.215 17.6943 173.112 17.7971L172.187 18.7224C172.099 18.8253 172.084 18.9868 172.172 19.0896Z" fill="black"/>
</svg>
